<svg width="23" height="23" viewBox="0 0 23 23" fill="none" xmlns="http://www.w3.org/2000/svg">
<path fill-rule="evenodd" clip-rule="evenodd" d="M24.2852 25.1603C24.2314 25.1067 24.1507 25.0263 24.0699 24.9727C23.5048 24.5169 22.5091 24.0611 21.3788 23.6053C21.1366 23.498 20.114 23.1227 18.9838 22.6669C18.2303 22.372 17.4498 22.0503 16.804 21.7821L15.4315 21.1119C15.4046 21.0314 15.3777 20.9242 15.3508 20.8169C15.3239 20.7097 15.3239 20.5757 15.297 20.4684V20.4416C15.297 20.388 15.297 20.3343 15.297 20.2807C15.297 20.2539 15.297 20.2271 15.297 20.2271C15.297 20.1735 15.297 20.1467 15.297 20.0931C15.297 20.0662 15.297 20.0126 15.297 19.9858C15.297 19.959 15.297 19.9322 15.297 19.9054C15.297 19.8518 15.297 19.8249 15.297 19.7713C15.297 19.6909 15.297 19.6105 15.297 19.53C15.3239 19.2887 15.3508 19.0742 15.3777 18.8866C16.8309 17.3047 17.4229 15.6692 17.6651 13.8729C18.015 13.8997 18.607 13.8461 19.0914 13.283C19.7104 12.5591 20.7599 9.55632 19.1183 9.07372C20.4101 1.91517 16.4541 -1.35577 9.32275 -0.578254C9.32275 -0.578254 5.31301 0.145641 5.44757 3.73832C5.44757 3.73832 4.12894 3.89919 4.39804 6.47304C4.47878 7.38462 4.64024 8.26938 4.80171 9.02009C2.89103 9.34182 3.99438 12.5323 4.64024 13.283C5.12464 13.8461 5.74359 13.8997 6.09343 13.8729C6.36254 15.696 6.92767 17.3315 8.40777 18.9134C8.46159 18.967 8.4885 19.0206 8.54233 19.0474C8.56924 19.3155 8.59615 19.5032 8.59615 19.53C8.59615 19.6373 8.62306 19.7713 8.62306 19.8786C8.62306 19.9858 8.62306 20.0931 8.62306 20.2003C8.62306 20.2271 8.62306 20.2271 8.62306 20.2539C8.62306 20.3612 8.62306 20.4684 8.59615 20.5488C8.59615 20.5756 8.59615 20.5757 8.59615 20.6025C8.59615 20.7097 8.56924 20.7901 8.56924 20.8706V20.8974C8.54233 20.9778 8.51542 21.0583 8.48851 21.1387C8.43468 21.2996 6.57783 22.0503 4.93626 22.7205C3.806 23.1763 2.8103 23.5517 2.54119 23.6589C1.41093 24.1147 0.388318 24.5705 -0.149901 25.0263C-0.230634 25.0799 -0.311367 25.1603 -0.365189 25.214C-0.903408 25.8038 -1.33398 26.8494 -1.33398 28.2436C1.43784 28.2436 3.85982 28.2436 6.12034 28.2436C6.4971 28.2436 6.90076 28.2436 7.27751 28.2436C10.5068 28.2436 13.4401 28.2436 16.6425 28.2436C17.0193 28.2436 17.396 28.2436 17.7997 28.2436C20.0602 28.2436 22.4822 28.2436 25.254 28.2436C25.254 26.7958 24.8504 25.7502 24.2852 25.1603ZM5.63595 8.93966C5.63595 8.67155 5.63595 8.40344 5.63595 8.10852C5.63595 8.37663 5.66286 8.67155 5.68977 8.93966C5.66286 8.93966 5.66286 8.93966 5.63595 8.93966Z" fill="#CDCFD1"/>
</svg>
