<svg width="23" height="23" viewBox="0 0 23 23" fill="none" xmlns="http://www.w3.org/2000/svg">
<path d="M10.58 16.56C7.26798 16.56 4.59998 13.892 4.59998 10.58C4.59998 7.26804 7.26798 4.60004 10.58 4.60004C13.892 4.60004 16.56 7.26804 16.56 10.58C16.56 13.892 13.892 16.56 10.58 16.56ZM10.58 5.52004C7.77398 5.52004 5.51998 7.77404 5.51998 10.58C5.51998 13.386 7.77398 15.64 10.58 15.64C13.386 15.64 15.64 13.386 15.64 10.58C15.64 7.77404 13.386 5.52004 10.58 5.52004Z" fill="#818181"/>
<path d="M15.0336 14.3829L19.1644 18.5137L18.514 19.1641L14.3832 15.0333L15.0336 14.3829Z" fill="#818181"/>
</svg>
